<svg aria-hidden="true" style="position: absolute; width: 0; height: 0; overflow: hidden;" version="1.1" xmlns="http://www.w3.org/2000/svg" xmlns:xlink="http://www.w3.org/1999/xlink">
<defs>
<symbol id="icon-triangle-left" viewBox="0 0 20 20">
<path d="M14 5v10l-9-5 9-5z"></path>
</symbol>
<symbol id="icon-triangle-right" viewBox="0 0 20 20">
<path d="M15 10l-9 5v-10l9 5z"></path>
</symbol>
<symbol id="icon-heart-outlined" viewBox="0 0 20 20">
<path d="M17.19 4.156c-1.672-1.535-4.383-1.535-6.055 0l-1.135 1.041-1.136-1.041c-1.672-1.535-4.382-1.535-6.054 0-1.881 1.726-1.881 4.519 0 6.245l7.19 6.599 7.19-6.599c1.88-1.726 1.88-4.52 0-6.245zM16.124 9.375l-6.124 5.715-6.125-5.715c-0.617-0.567-0.856-1.307-0.856-2.094s0.138-1.433 0.756-1.999c0.545-0.501 1.278-0.777 2.063-0.777s1.517 0.476 2.062 0.978l2.1 1.825 2.099-1.826c0.546-0.502 1.278-0.978 2.063-0.978s1.518 0.276 2.063 0.777c0.618 0.566 0.755 1.212 0.755 1.999s-0.238 1.528-0.856 2.095z"></path>
</symbol>
<symbol id="icon-heart" viewBox="0 0 20 20">
<path d="M17.19 4.155c-1.672-1.534-4.383-1.534-6.055 0l-1.135 1.042-1.136-1.042c-1.672-1.534-4.382-1.534-6.054 0-1.881 1.727-1.881 4.52 0 6.246l7.19 6.599 7.19-6.599c1.88-1.726 1.88-4.52 0-6.246z"></path>
</symbol>
<symbol id="icon-search" viewBox="0 0 32 32">
<path d="M31.008 27.231l-7.58-6.447c-0.784-0.705-1.622-1.029-2.299-0.998 1.789-2.096 2.87-4.815 2.87-7.787 0-6.627-5.373-12-12-12s-12 5.373-12 12 5.373 12 12 12c2.972 0 5.691-1.081 7.787-2.87-0.031 0.677 0.293 1.515 0.998 2.299l6.447 7.58c1.104 1.226 2.907 1.33 4.007 0.23s0.997-2.903-0.23-4.007zM12 20c-4.418 0-8-3.582-8-8s3.582-8 8-8 8 3.582 8 8-3.582 8-8 8z"></path>
</symbol>
<symbol id="icon-star-empty" viewBox="0 0 32 32">
<path d="M32 12.408l-11.056-1.607-4.944-10.018-4.944 10.018-11.056 1.607 8 7.798-1.889 11.011 9.889-5.199 9.889 5.199-1.889-11.011 8-7.798zM16 23.547l-6.983 3.671 1.334-7.776-5.65-5.507 7.808-1.134 3.492-7.075 3.492 7.075 7.807 1.134-5.65 5.507 1.334 7.776-6.983-3.671z"></path>
</symbol>
<symbol id="icon-star-full" viewBox="0 0 32 32">
<path d="M32 12.408l-11.056-1.607-4.944-10.018-4.944 10.018-11.056 1.607 8 7.798-1.889 11.011 9.889-5.199 9.889 5.199-1.889-11.011 8-7.798z"></path>
</symbol>
<symbol id="icon-heart1" viewBox="0 0 32 32">
<path d="M23.6 2c-3.363 0-6.258 2.736-7.599 5.594-1.342-2.858-4.237-5.594-7.601-5.594-4.637 0-8.4 3.764-8.4 8.401 0 9.433 9.516 11.906 16.001 21.232 6.13-9.268 15.999-12.1 15.999-21.232 0-4.637-3.763-8.401-8.4-8.401z"></path>
</symbol>
<symbol id="icon-twitter" viewBox="0 0 32 32">
<path d="M32 7.075c-1.175 0.525-2.444 0.875-3.769 1.031 1.356-0.813 2.394-2.1 2.887-3.631-1.269 0.75-2.675 1.3-4.169 1.594-1.2-1.275-2.906-2.069-4.794-2.069-3.625 0-6.563 2.938-6.563 6.563 0 0.512 0.056 1.012 0.169 1.494-5.456-0.275-10.294-2.888-13.531-6.862-0.563 0.969-0.887 2.1-0.887 3.3 0 2.275 1.156 4.287 2.919 5.463-1.075-0.031-2.087-0.331-2.975-0.819 0 0.025 0 0.056 0 0.081 0 3.181 2.263 5.838 5.269 6.437-0.55 0.15-1.131 0.231-1.731 0.231-0.425 0-0.831-0.044-1.237-0.119 0.838 2.606 3.263 4.506 6.131 4.563-2.25 1.762-5.075 2.813-8.156 2.813-0.531 0-1.050-0.031-1.569-0.094 2.913 1.869 6.362 2.95 10.069 2.95 12.075 0 18.681-10.006 18.681-18.681 0-0.287-0.006-0.569-0.019-0.85 1.281-0.919 2.394-2.075 3.275-3.394z"></path>
</symbol>
</defs>
</svg>
